# File created by Blade
# Date/Time:  Tue Sep 30 19:31:45 2014
#---------------------------------------------------------
:version 1.10
:name HOM
:units
  mass 1.0
  length 1.000000
  angle deg
:documentation
     Acclaim Skeleton File
:root
   axis xyz
   order TX TY TZ RX RY RZ
   position 0.000000 0.000000 0.000000
   orientation 0 0 0
:bonedata
   begin
      id 1
      name Spine_dum
      direction 0.000000 1.000000 0.000000
      length 3.241213
      axis 0.0 0.0 0.0 xyz
   end
   begin
      id 2
      name LeftUpLeg_dum
      direction 1.000000 0.000000 0.000000
      length 3.434019
      axis 0.0 0.0 0.0 xyz
   end
   begin
      id 3
      name RightUpLeg_dum
      direction -1.000000 0.000000 0.000000
      length 3.434019
      axis 0.0 0.0 0.0 xyz
   end
   begin
      id 4
      name Spine
      direction 0.000000 1.000000 0.000000
      length 0.000000
      axis 0.0 0.0 0.0 xyz
      dof rx ry rz
   end
   begin
      id 5
      name Spine_dum1
      direction 0.000000 1.000000 0.000000
      length 18.382958
      axis 0.0 0.0 0.0 xyz
   end
   begin
      id 6
      name Spine_dum2
      direction 0.000000 1.000000 0.000000
      length 12.828261
      axis 0.0 0.0 0.0 xyz
   end
   begin
      id 7
      name Spine_dum3
      direction 0.000000 1.000000 0.000000
      length 12.828261
      axis 0.0 0.0 0.0 xyz
   end
   begin
      id 8
      name Head
      direction 0.000000 1.000000 0.000000
      length 4.527550
      axis 0.0 0.0 0.0 xyz
      dof rx ry rz
   end
   begin
      id 9
      name LeftShoulder
      direction 1.000000 0.000000 0.000000
      length 7.748055
      axis 0.0 0.0 -90.0 xyz
      dof rx ry rz
   end
   begin
      id 10
      name LeftArm
      direction 1.000000 0.000000 0.000000
      length 10.635614
      axis 0.0 0.0 -90.0 xyz
      dof rx ry rz
   end
   begin
      id 11
      name LeftForeArm
      direction 1.000000 0.000000 0.000000
      length 8.346755
      axis 0.0 0.0 -90.0 xyz
      dof ry rz rx
   end
   begin
      id 12
      name LeftHand
      direction 0.000000 0.000000 0.000000
      length 0.000000
      axis 0.0 0.0 -90.0 xyz
      dof rx ry rz
   end
   begin
      id 13
      name LeftHand_dum1
      direction 0.000000 0.000000 0.000000
      length 0.000000
      axis 0.0 0.0 -90.0 xyz
   end
   begin
      id 14
      name LeftHand_dum2
      direction 1.000000 0.000000 0.000000
      length 3.937000
      axis 0.0 0.0 -90.0 xyz
   end
   begin
      id 15
      name LeftHandThumb1
      direction 0.000000 0.000000 1.000000
      length 3.937000
      axis 0.0 0.0 -90.0 xyz
      dof rx rz ry
   end
   begin
      id 16
      name RightShoulder
      direction -1.000000 0.000000 0.000000
      length 7.748055
      axis 0.0 0.0 90.0 xyz
      dof rx ry rz
   end
   begin
      id 17
      name RightArm
      direction -1.000000 0.000000 0.000000
      length 10.635614
      axis 0.0 0.0 90.0 xyz
      dof rx ry rz
   end
   begin
      id 18
      name RightForeArm
      direction -1.000000 0.000000 0.000000
      length 8.346755
      axis 0.0 0.0 90.0 xyz
      dof ry rz rx
   end
   begin
      id 19
      name RightHand
      direction 0.000000 0.000000 0.000000
      length 0.000000
      axis 0.0 0.0 90.0 xyz
      dof rx ry rz
   end
   begin
      id 20
      name RightHand_dum1
      direction 0.000000 0.000000 0.000000
      length 0.000000
      axis 0.0 0.0 90.0 xyz
   end
   begin
      id 21
      name RightHand_dum2
      direction -1.000000 0.000000 0.000000
      length 3.937000
      axis 0.0 0.0 90.0 xyz
   end
   begin
      id 22
      name RightHandThumb1
      direction 0.000000 0.000000 1.000000
      length 3.937000
      axis 0.0 0.0 90.0 xyz
      dof rx rz ry
   end
   begin
      id 23
      name LeftUpLeg
      direction 0.000000 -1.000000 0.000000
      length 15.713025
      axis 0.0 0.0 0.0 xyz
      dof rx ry rz
   end
   begin
      id 24
      name LeftLeg
      direction 0.000000 -1.000000 0.000000
      length 14.435119
      axis 0.0 0.0 0.0 xyz
      dof rx ry rz
   end
   begin
      id 25
      name LeftFoot
      direction 0.000000 -0.258819 0.965926
      length 4.938895
      axis 15.0 0.0 0.0 xyz
      dof rx ry rz
   end
   begin
      id 26
      name LeftToeBase
      direction 0.000000 0.000000 1.000000
      length 2.952750
      axis 0.0 0.0 0.0 xyz
      dof rx ry rz
   end
   begin
      id 27
      name RightUpLeg
      direction 0.000000 -1.000000 0.000000
      length 15.713025
      axis 0.0 0.0 0.0 xyz
      dof rx ry rz
   end
   begin
      id 28
      name RightLeg
      direction 0.000000 -1.000000 0.000000
      length 14.435119
      axis 0.0 0.0 0.0 xyz
      dof rx ry rz
   end
   begin
      id 29
      name RightFoot
      direction 0.000000 -0.258819 0.965926
      length 4.938895
      axis 15.0 0.0 0.0 xyz
      dof rx ry rz
   end
   begin
      id 30
      name RightToeBase
      direction 0.000000 0.000000 1.000000
      length 2.952750
      axis 0.0 0.0 0.0 xyz
      dof rx ry rz
   end
:hierarchy
   begin
      root Spine_dum LeftUpLeg_dum RightUpLeg_dum
      Spine_dum Spine
      LeftUpLeg_dum LeftUpLeg
      RightUpLeg_dum RightUpLeg
      Spine Spine_dum1 Spine_dum2 Spine_dum3
      Spine_dum1 Head
      Spine_dum2 LeftShoulder
      Spine_dum3 RightShoulder
      LeftShoulder LeftArm
      LeftArm LeftForeArm
      LeftForeArm LeftHand
      LeftHand LeftHand_dum1 LeftHand_dum2
      LeftHand_dum1 LeftHandThumb1
      RightShoulder RightArm
      RightArm RightForeArm
      RightForeArm RightHand
      RightHand RightHand_dum1 RightHand_dum2
      RightHand_dum1 RightHandThumb1
      LeftUpLeg LeftLeg
      LeftLeg LeftFoot
      LeftFoot LeftToeBase
      RightUpLeg RightLeg
      RightLeg RightFoot
      RightFoot RightToeBase
   end

# File created by Blade
# Date/Time:  Mon Sep 22 19:00:17 2014
# Frame Rate: 120.000 fps
#------------------------------------------------------
:FULLY-SPECIFIED
:DEGREES
1509
root -0.461478 32.805630 -3.647625 38.546416 0.495351 0.833467
Spine -44.982631 -2.025103 -2.186001
Head 1.753427 -18.491208 -8.306386
LeftShoulder -7.838752 44.341181 12.656406
LeftArm 71.650552 34.399592 -48.366426
LeftForeArm 7.283348 -0.000000 7.086707
LeftHand -18.788107 -0.000000 -8.151822
LeftHandThumb1 -26.253704 0.000000 33.147579
RightShoulder -14.511976 -14.331360 -43.874866
RightArm 105.247585 47.275636 111.385552
RightForeArm 89.279600 -0.000000 42.094480
RightHand 25.724310 -0.000000 1.402083
RightHandThumb1 -24.326973 -0.000000 -32.862282
LeftUpLeg -32.655778 6.432367 -2.433757
LeftLeg -0.500320 -0.000000 0.000000
LeftFoot -2.113342 -0.154971 -2.774396
LeftToeBase 1.717761 -0.000000 -0.000000
RightUpLeg -33.103133 -11.269589 4.723203
RightLeg -2.559215 -0.000000 0.000000
RightFoot -5.172267 -4.451493 19.076152
RightToeBase 15.725226 -0.000000 -0.000000
1510
root -0.469127 32.805826 -3.647525 38.546829 0.538926 0.845008
Spine -44.959144 -1.999573 -2.165705
Head 1.846327 -18.448268 -8.466382
LeftShoulder -7.868877 44.351437 12.600945
LeftArm 71.600207 34.409706 -48.401168
LeftForeArm 7.296571 -0.000000 6.984270
LeftHand -18.786886 -0.000000 -8.162237
LeftHandThumb1 -26.253704 0.000000 33.147579
RightShoulder -14.581683 -14.335441 -43.911002
RightArm 106.236476 46.936406 112.831352
RightForeArm 88.123371 -0.000000 45.185137
RightHand 25.766940 -0.000000 1.004593
RightHandThumb1 -24.326973 -0.000000 -32.862282
LeftUpLeg -32.660854 6.406975 -2.411997
LeftLeg -0.501448 -0.000000 0.000000
LeftFoot -2.089023 -0.163152 -2.783899
LeftToeBase 1.719267 -0.000000 -0.000000
RightUpLeg -33.094624 -11.288158 4.742306
RightLeg -2.569555 -0.000000 0.000000
RightFoot -5.188681 -4.479452 19.078395
RightToeBase 15.792301 -0.000000 -0.000000
1511
root -0.476867 32.806326 -3.647189 38.545589 0.571882 0.855193
Spine -44.934151 -1.952172 -2.159286
Head 1.974486 -18.385266 -8.643267
LeftShoulder -7.895717 44.391385 12.540326
LeftArm 71.564574 34.400428 -48.455502
LeftForeArm 7.248155 -0.000000 6.883484
LeftHand -18.818844 -0.000000 -8.019314
LeftHandThumb1 -26.253704 0.000000 33.147579
RightShoulder -14.673967 -14.386344 -43.947481
RightArm 107.209798 46.555128 114.212563
RightForeArm 87.127467 0.000000 48.291743
RightHand 25.666466 -0.000000 0.580355
RightHandThumb1 -24.326973 -0.000000 -32.862282
LeftUpLeg -32.669249 6.403557 -2.400595
LeftLeg -0.490805 -0.000000 0.000000
LeftFoot -2.076747 -0.194676 -2.769096
LeftToeBase 1.702424 -0.000000 -0.000000
RightUpLeg -33.083801 -11.305875 4.759794
RightLeg -2.580477 -0.000000 0.000000
RightFoot -5.187289 -4.482088 19.037566
RightToeBase 15.744349 -0.000000 -0.000000
1512
root -0.486436 32.807060 -3.647953 38.548524 0.601233 0.854687
Spine -44.909415 -1.897047 -2.152863
Head 2.102423 -18.326369 -8.829137
LeftShoulder -7.940961 44.429333 12.464627
LeftArm 71.502084 34.351196 -48.568503
LeftForeArm 7.394219 -0.000000 6.787813
LeftHand -18.800439 0.000000 -8.323786
LeftHandThumb1 -26.253704 0.000000 33.147579
RightShoulder -14.770871 -14.365074 -43.991874
RightArm 108.050934 46.184602 115.444672
RightForeArm 86.192434 0.000000 51.435215
RightHand 25.516806 -0.000000 0.309796
RightHandThumb1 -24.326973 -0.000000 -32.862282
LeftUpLeg -32.673451 6.390023 -2.369413
LeftLeg -0.500188 -0.000000 0.000000
LeftFoot -2.061554 -0.186503 -2.773397
LeftToeBase 1.736126 -0.000000 -0.000000
RightUpLeg -33.092975 -11.301902 4.774539
RightLeg -2.554566 -0.000000 0.000000
RightFoot -5.208108 -4.456880 19.104032
RightToeBase 15.756683 -0.000000 -0.000000
1513
root -0.495995 32.807560 -3.647990 38.553160 0.633103 0.860806
Spine -44.888783 -1.853508 -2.151161
Head 2.222875 -18.278615 -8.982918
LeftShoulder -7.951647 44.445422 12.429448
LeftArm 71.439382 34.345214 -48.655226
LeftForeArm 7.297022 -0.000000 6.703146
LeftHand -18.796620 -0.000000 -8.307021
LeftHandThumb1 -26.253704 0.000000 33.147579
RightShoulder -14.865287 -14.315570 -44.046152
RightArm 108.854830 45.800069 116.608378
RightForeArm 85.092706 0.000000 54.469369
RightHand 25.363475 -0.000000 0.271918
RightHandThumb1 -24.326973 -0.000000 -32.862282
LeftUpLeg -32.680570 6.373326 -2.345041
LeftLeg -0.501326 -0.000000 0.000000
LeftFoot -2.042314 -0.180931 -2.814462
LeftToeBase 1.682590 -0.000000 -0.000000
RightUpLeg -33.088034 -11.323341 4.807287
RightLeg -2.571352 -0.000000 0.000000
RightFoot -5.214964 -4.467336 19.066834
RightToeBase 15.770943 -0.000000 -0.000000
1514
root -0.506024 32.808122 -3.648158 38.559035 0.658276 0.866718
Spine -44.871036 -1.814244 -2.146893
Head 2.354086 -18.179106 -9.130500
LeftShoulder -7.947344 44.446343 12.401432
LeftArm 71.356567 34.373149 -48.716714
LeftForeArm 7.210915 -0.000000 6.664780
LeftHand -18.828709 -0.000000 -8.201378
LeftHandThumb1 -26.253704 0.000000 33.147579
RightShoulder -14.947815 -14.239710 -44.111131
RightArm 109.617788 45.420516 117.694898
RightForeArm 84.054530 -0.000000 57.546485
RightHand 25.160970 -0.000000 -0.173322
RightHandThumb1 -24.326973 -0.000000 -32.862282
LeftUpLeg -32.689924 6.381029 -2.335974
LeftLeg -0.507259 -0.000000 0.000000
LeftFoot -2.021440 -0.201964 -2.785148
LeftToeBase 1.707515 -0.000000 -0.000000
RightUpLeg -33.080226 -11.332320 4.832628
RightLeg -2.595791 -0.000000 0.000000
RightFoot -5.216445 -4.479478 19.023793
RightToeBase 15.795144 -0.000000 -0.000000
1515
root -0.515841 32.808581 -3.648280 38.559487 0.688574 0.869538
Spine -44.845297 -1.760790 -2.143066
Head 2.494909 -18.110574 -9.323969
LeftShoulder -7.947858 44.466519 12.363937
LeftArm 71.248968 34.341418 -48.873644
LeftForeArm 7.439032 0.000000 6.598983
LeftHand -18.757107 -0.000000 -8.306372
LeftHandThumb1 -26.253704 0.000000 33.147579
RightShoulder -15.035104 -14.197943 -44.186820
RightArm 110.366569 45.052652 118.708320
RightForeArm 83.185458 -0.000000 60.646593
RightHand 25.033211 -0.000000 -0.580446
RightHandThumb1 -24.326973 -0.000000 -32.862282
LeftUpLeg -32.691085 6.371698 -2.309541
LeftLeg -0.514882 -0.000000 0.000000
LeftFoot -2.001720 -0.217254 -2.822902
LeftToeBase 1.692517 -0.000000 -0.000000
RightUpLeg -33.071721 -11.365292 4.875464
RightLeg -2.614759 -0.000000 0.000000
RightFoot -5.200821 -4.464468 19.043687
RightToeBase 15.787588 -0.000000 -0.000000
